<?xml version="1.0" encoding="UTF-8"?>
<svg xmlns="http://www.w3.org/2000/svg" xmlns:xlink="http://www.w3.org/1999/xlink" width="234.75pt" height="302.999993pt" viewBox="0 0 234.75 302.999993" version="1.2">
<defs>
<filter id="alpha" filterUnits="objectBoundingBox" x="0%" y="0%" width="100%" height="100%">
  <feColorMatrix type="matrix" in="SourceGraphic" values="0 0 0 0 1 0 0 0 0 1 0 0 0 0 1 0 0 0 1 0"/>
</filter>
<mask id="mask0">
  <g filter="url(#alpha)">
<rect x="0" y="0" width="234.75" height="302.999993" style="fill:rgb(0%,0%,0%);fill-opacity:0.1765;stroke:none;"/>
  </g>
</mask>
<clipPath id="clip2">
  <path d="M 0.136719 66 L 73 66 L 73 134 L 0.136719 134 Z M 0.136719 66 "/>
</clipPath>
<clipPath id="clip3">
  <path d="M 159.242188 67 L 226.539062 67 L 226.539062 129.945312 L 159.242188 129.945312 Z M 159.242188 67 "/>
</clipPath>
<clipPath id="clip4">
  <path d="M 74 0.246094 L 166 0.246094 L 166 85 L 74 85 Z M 74 0.246094 "/>
</clipPath>
<clipPath id="clip5">
  <path d="M 37 154 L 189.867188 154 L 189.867188 267.246094 L 37 267.246094 Z M 37 154 "/>
</clipPath>
<clipPath id="clip1">
  <rect x="0" y="0" width="227" height="268"/>
</clipPath>
<g id="surface5" clip-path="url(#clip1)">
<g clip-path="url(#clip2)" clip-rule="nonzero">
<path style=" stroke:none;fill-rule:nonzero;fill:rgb(4.309082%,52.938843%,57.649231%);fill-opacity:1;" d="M 22.15625 133.878906 L 22.15625 131.921875 C 22.15625 127.726562 22.632812 124.285156 23.578125 121.6875 C 24.519531 119.097656 25.941406 116.695312 27.808594 114.550781 C 29.699219 112.375 34.03125 108.476562 40.679688 102.960938 C 44.421875 99.910156 46.242188 97.148438 46.242188 94.519531 C 46.242188 91.945312 45.457031 89.902344 43.914062 88.449219 C 42.378906 87.011719 40.058594 86.28125 37.011719 86.28125 C 33.738281 86.28125 30.988281 87.382812 28.839844 89.558594 C 26.785156 91.636719 25.429688 95.210938 24.808594 100.183594 L 0.238281 97.140625 C 1.183594 88.125 4.570312 80.753906 10.304688 75.226562 C 16.144531 69.601562 25.265625 66.746094 37.410156 66.746094 C 46.863281 66.746094 54.59375 68.742188 60.386719 72.671875 C 64.308594 75.328125 67.289062 78.457031 69.242188 81.980469 C 71.191406 85.5 72.183594 89.519531 72.183594 93.921875 C 72.183594 97.554688 71.164062 101.113281 69.152344 104.492188 C 67.125 107.90625 62.894531 112.152344 56.582031 117.117188 C 52.023438 120.730469 49.21875 123.570312 48 125.796875 C 46.855469 127.890625 46.246094 130.609375 46.183594 133.878906 L 22.15625 133.878906 "/>
</g>
<path style=" stroke:none;fill-rule:nonzero;fill:rgb(4.309082%,52.938843%,57.649231%);fill-opacity:1;" d="M 34.445312 165.953125 C 27.140625 165.953125 21.191406 160.003906 21.191406 152.695312 C 21.191406 145.382812 27.140625 139.433594 34.445312 139.433594 C 41.753906 139.433594 47.699219 145.382812 47.699219 152.695312 C 47.699219 160.003906 41.753906 165.953125 34.445312 165.953125 "/>
<g clip-path="url(#clip3)" clip-rule="nonzero">
<path style=" stroke:none;fill-rule:nonzero;fill:rgb(4.309082%,52.938843%,57.649231%);fill-opacity:1;" d="M 179.972656 129.722656 L 179.972656 127.902344 C 179.972656 123.996094 180.417969 120.789062 181.296875 118.375 C 182.175781 115.960938 183.5 113.726562 185.234375 111.726562 C 186.996094 109.703125 191.027344 106.074219 197.214844 100.941406 C 200.699219 98.101562 202.394531 95.53125 202.394531 93.082031 C 202.394531 90.6875 201.664062 88.785156 200.226562 87.433594 C 198.796875 86.09375 196.636719 85.414062 193.804688 85.414062 C 190.757812 85.414062 188.199219 86.441406 186.195312 88.464844 C 184.28125 90.402344 183.019531 93.726562 182.445312 98.355469 L 159.574219 95.523438 C 160.453125 87.128906 163.605469 80.269531 168.945312 75.125 C 174.378906 69.886719 182.871094 67.230469 194.175781 67.230469 C 202.972656 67.230469 210.171875 69.089844 215.558594 72.746094 C 219.210938 75.21875 221.984375 78.132812 223.804688 81.414062 C 225.621094 84.6875 226.542969 88.425781 226.542969 92.527344 C 226.542969 95.910156 225.59375 99.21875 223.71875 102.371094 C 221.832031 105.542969 217.894531 109.496094 212.019531 114.117188 C 207.777344 117.480469 205.164062 120.125 204.03125 122.195312 C 202.964844 124.148438 202.398438 126.675781 202.339844 129.722656 L 179.972656 129.722656 "/>
</g>
<path style=" stroke:none;fill-rule:nonzero;fill:rgb(4.309082%,52.938843%,57.649231%);fill-opacity:1;" d="M 191.414062 159.578125 C 184.613281 159.578125 179.078125 154.039062 179.078125 147.234375 C 179.078125 140.429688 184.613281 134.890625 191.414062 134.890625 C 198.21875 134.890625 203.75 140.429688 203.75 147.234375 C 203.75 154.039062 198.21875 159.578125 191.414062 159.578125 "/>
<g clip-path="url(#clip4)" clip-rule="nonzero">
<path style=" stroke:none;fill-rule:nonzero;fill:rgb(4.309082%,52.938843%,57.649231%);fill-opacity:1;" d="M 102.363281 84.882812 L 102.363281 82.417969 C 102.363281 77.128906 102.96875 72.785156 104.15625 69.511719 C 105.34375 66.246094 107.140625 63.21875 109.492188 60.511719 C 111.875 57.769531 117.335938 52.855469 125.71875 45.902344 C 130.433594 42.058594 132.730469 38.574219 132.730469 35.261719 C 132.730469 32.011719 131.742188 29.4375 129.796875 27.609375 C 127.859375 25.792969 124.933594 24.871094 121.09375 24.871094 C 116.96875 24.871094 113.503906 26.261719 110.792969 29.003906 C 108.199219 31.628906 106.488281 36.132812 105.710938 42.402344 L 74.734375 38.566406 C 75.925781 27.199219 80.191406 17.90625 87.425781 10.941406 C 94.789062 3.84375 106.285156 0.246094 121.59375 0.246094 C 133.515625 0.246094 143.261719 2.761719 150.5625 7.71875 C 155.507812 11.0625 159.265625 15.007812 161.730469 19.453125 C 164.1875 23.886719 165.4375 28.953125 165.4375 34.511719 C 165.4375 39.085938 164.148438 43.570312 161.613281 47.835938 C 159.058594 52.136719 153.726562 57.488281 145.769531 63.75 C 140.019531 68.304688 136.480469 71.886719 134.949219 74.691406 C 133.503906 77.332031 132.738281 80.757812 132.660156 84.882812 L 102.363281 84.882812 "/>
</g>
<path style=" stroke:none;fill-rule:nonzero;fill:rgb(4.309082%,52.938843%,57.649231%);fill-opacity:1;" d="M 117.859375 125.320312 C 108.644531 125.320312 101.152344 117.820312 101.152344 108.601562 C 101.152344 99.386719 108.644531 91.886719 117.859375 91.886719 C 127.074219 91.886719 134.570312 99.386719 134.570312 108.601562 C 134.570312 117.820312 127.074219 125.320312 117.859375 125.320312 "/>
<g clip-path="url(#clip5)" clip-rule="nonzero">
<path style=" stroke:none;fill-rule:nonzero;fill:rgb(4.309082%,52.938843%,57.649231%);fill-opacity:1;" d="M 186.792969 201.996094 L 184.195312 199.933594 C 181.109375 197.484375 176.621094 198 174.171875 201.085938 L 158.410156 220.957031 L 136.859375 203.871094 C 135.558594 202.464844 133.699219 201.578125 131.628906 201.578125 L 123.382812 201.578125 C 132.035156 197.714844 138.074219 189.035156 138.074219 178.941406 C 138.074219 165.257812 126.988281 154.164062 113.308594 154.164062 C 99.632812 154.164062 88.546875 165.257812 88.546875 178.941406 C 88.546875 189.035156 94.582031 197.714844 103.242188 201.578125 L 94.992188 201.578125 C 92.921875 201.578125 91.066406 202.464844 89.761719 203.871094 L 68.210938 220.957031 L 52.449219 201.085938 C 50 198 45.511719 197.484375 42.425781 199.933594 L 39.828125 201.996094 C 36.742188 204.445312 36.226562 208.9375 38.675781 212.023438 L 60.945312 240.101562 C 63.394531 243.1875 67.882812 243.707031 70.96875 241.253906 L 73.566406 239.191406 C 73.699219 239.085938 73.824219 238.96875 73.945312 238.855469 L 87.859375 227.828125 L 87.859375 267.253906 L 138.761719 267.253906 L 138.761719 227.828125 L 152.671875 238.855469 C 152.796875 238.96875 152.921875 239.085938 153.054688 239.191406 L 155.652344 241.253906 C 158.738281 243.707031 163.226562 243.1875 165.675781 240.101562 L 187.945312 212.023438 C 190.398438 208.9375 189.878906 204.445312 186.792969 201.996094 "/>
</g>
</g>
</defs>
<g id="surface1">
<use xlink:href="#surface5" transform="matrix(1,0,0,1,4,18)" mask="url(#mask0)"/>
</g>
</svg>
